<svg id="svg" version="1.1" xmlns="http://www.w3.org/2000/svg" xmlns:xlink="http://www.w3.org/1999/xlink" width="400" height="400" viewBox="0, 0, 400,400"><g id="svgg"><path id="path0" d="M-0.000 24.794 L -0.000 49.589 12.500 49.694 L 25.000 49.800 25.106 62.294 L 25.211 74.789 37.706 74.894 L 50.200 75.000 50.306 87.294 L 50.412 99.588 62.706 99.694 L 75.000 99.800 75.106 112.500 L 75.211 125.200 62.809 125.200 L 50.406 125.200 50.303 150.100 L 50.200 175.000 25.100 175.103 L 0.000 175.206 0.000 200.000 L 0.000 224.794 25.100 224.897 L 50.200 225.000 50.303 249.900 L 50.406 274.800 75.001 274.800 L 99.597 274.800 99.698 224.900 L 99.800 175.000 112.294 174.894 L 124.789 174.789 124.894 162.294 L 125.000 149.800 137.294 149.694 L 149.588 149.588 149.694 137.294 L 149.800 125.000 162.300 124.894 L 174.800 124.789 174.800 87.594 L 174.800 50.400 150.000 50.400 L 125.200 50.400 125.200 62.806 L 125.200 75.211 112.500 75.106 L 99.800 75.000 99.694 62.706 L 99.588 50.412 87.294 50.306 L 75.000 50.200 74.894 37.706 L 74.789 25.211 62.294 25.106 L 49.800 25.000 49.694 12.500 L 49.589 -0.000 24.794 -0.000 L 0.000 0.000 -0.000 24.794 M350.306 12.500 L 350.200 25.000 337.706 25.106 L 325.211 25.211 325.106 37.706 L 325.000 50.200 312.706 50.306 L 300.412 50.412 300.306 62.706 L 300.200 75.000 287.500 75.106 L 274.800 75.211 274.800 62.806 L 274.800 50.400 250.000 50.400 L 225.200 50.400 225.200 112.600 L 225.200 174.800 237.394 174.800 L 249.589 174.800 249.694 162.300 L 249.800 149.800 262.400 149.800 L 275.000 149.800 275.106 162.294 L 275.211 174.789 287.706 174.894 L 300.200 175.000 300.302 224.900 L 300.403 274.800 324.999 274.800 L 349.594 274.800 349.697 249.900 L 349.800 225.000 374.900 224.897 L 400.000 224.794 400.000 200.000 L 400.000 175.206 374.900 175.103 L 349.800 175.000 349.697 150.100 L 349.594 125.200 337.191 125.200 L 324.789 125.200 324.894 112.500 L 325.000 99.800 337.294 99.694 L 349.588 99.588 349.694 87.294 L 349.800 75.000 362.294 74.894 L 374.789 74.789 374.894 62.294 L 375.000 49.800 387.500 49.694 L 400.000 49.589 400.000 24.794 L 400.000 0.000 375.206 0.000 L 350.411 0.000 350.306 12.500 M125.200 187.600 L 125.200 200.000 137.400 200.000 L 149.600 200.000 149.600 187.600 L 149.600 175.200 137.400 175.200 L 125.200 175.200 125.200 187.600 M250.400 187.600 L 250.400 200.000 262.600 200.000 L 274.800 200.000 274.800 187.600 L 274.800 175.200 262.600 175.200 L 250.400 175.200 250.400 187.600 M150.000 212.600 L 150.000 224.800 162.400 224.800 L 174.800 224.800 174.800 212.600 L 174.800 200.400 162.400 200.400 L 150.000 200.400 150.000 212.600 M225.200 212.600 L 225.200 224.800 237.600 224.800 L 250.000 224.800 250.000 212.600 L 250.000 200.400 237.600 200.400 L 225.200 200.400 225.200 212.600 M125.200 250.000 L 125.200 274.800 137.600 274.800 L 150.000 274.800 150.000 250.000 L 150.000 225.200 137.600 225.200 L 125.200 225.200 125.200 250.000 M250.000 250.000 L 250.000 274.800 262.400 274.800 L 274.800 274.800 274.800 250.000 L 274.800 225.200 262.400 225.200 L 250.000 225.200 250.000 250.000 M175.200 262.400 L 175.200 274.800 200.000 274.800 L 224.800 274.800 224.800 262.400 L 224.800 250.000 200.000 250.000 L 175.200 250.000 175.200 262.400 M100.400 300.000 L 100.400 324.800 112.600 324.800 L 124.800 324.800 124.800 300.000 L 124.800 275.200 112.600 275.200 L 100.400 275.200 100.400 300.000 M150.000 300.000 L 150.000 324.800 162.400 324.800 L 174.800 324.800 174.800 300.000 L 174.800 275.200 162.400 275.200 L 150.000 275.200 150.000 300.000 M225.200 300.000 L 225.200 324.800 237.600 324.800 L 250.000 324.800 250.000 300.000 L 250.000 275.200 237.600 275.200 L 225.200 275.200 225.200 300.000 M275.200 300.000 L 275.200 324.800 287.400 324.800 L 299.600 324.800 299.600 300.000 L 299.600 275.200 287.400 275.200 L 275.200 275.200 275.200 300.000 M50.400 312.600 L 50.400 324.800 62.600 324.800 L 74.800 324.800 74.800 312.600 L 74.800 300.400 62.600 300.400 L 50.400 300.400 50.400 312.600 M325.200 312.600 L 325.200 324.800 337.400 324.800 L 349.600 324.800 349.600 312.600 L 349.600 300.400 337.400 300.400 L 325.200 300.400 325.200 312.600 M25.106 337.700 L 25.000 350.200 12.500 350.306 L 0.000 350.411 0.000 375.206 L 0.000 400.000 24.800 400.000 L 49.600 400.000 49.600 362.600 L 49.600 325.200 37.406 325.200 L 25.211 325.200 25.106 337.700 M75.200 350.000 L 75.200 374.800 87.600 374.800 L 100.000 374.800 100.000 350.000 L 100.000 325.200 87.600 325.200 L 75.200 325.200 75.200 350.000 M125.103 350.100 L 125.000 375.000 112.700 375.106 L 100.400 375.212 100.400 387.606 L 100.400 400.000 125.200 400.000 L 150.000 400.000 150.000 362.600 L 150.000 325.200 137.603 325.200 L 125.206 325.200 125.103 350.100 M175.200 362.600 L 175.200 400.000 200.000 400.000 L 224.800 400.000 224.800 362.600 L 224.800 325.200 200.000 325.200 L 175.200 325.200 175.200 362.600 M250.000 362.600 L 250.000 400.000 274.800 400.000 L 299.600 400.000 299.600 387.606 L 299.600 375.212 287.300 375.106 L 275.000 375.000 274.897 350.100 L 274.794 325.200 262.397 325.200 L 250.000 325.200 250.000 362.600 M300.000 350.000 L 300.000 374.800 312.400 374.800 L 324.800 374.800 324.800 350.000 L 324.800 325.200 312.400 325.200 L 300.000 325.200 300.000 350.000 M350.400 362.600 L 350.400 400.000 375.200 400.000 L 400.000 400.000 400.000 375.206 L 400.000 350.411 387.500 350.306 L 375.000 350.200 374.894 337.700 L 374.789 325.200 362.594 325.200 L 350.400 325.200 350.400 362.600 " stroke="none" fill="#7ca484" fill-rule="evenodd"></path><path id="path1" d="M50.000 12.394 L 50.000 24.789 62.500 24.894 L 75.000 25.000 75.106 37.500 L 75.211 50.000 87.606 50.000 L 100.000 50.000 100.000 62.400 L 100.000 74.800 112.400 74.800 L 124.800 74.800 124.800 62.403 L 124.800 50.006 149.900 49.903 L 175.000 49.800 175.103 24.900 L 175.206 0.000 112.603 0.000 L 50.000 0.000 50.000 12.394 M224.897 24.900 L 225.000 49.800 250.100 49.903 L 275.200 50.006 275.200 62.403 L 275.200 74.800 287.600 74.800 L 300.000 74.800 300.000 62.400 L 300.000 50.000 312.394 50.000 L 324.789 50.000 324.894 37.500 L 325.000 25.000 337.500 24.894 L 350.000 24.789 350.000 12.394 L 350.000 0.000 287.397 0.000 L 224.794 0.000 224.897 24.900 M0.000 112.400 L 0.000 174.800 25.000 174.800 L 50.000 174.800 50.000 149.800 L 50.000 124.800 62.400 124.800 L 74.800 124.800 74.800 112.400 L 74.800 100.000 62.400 100.000 L 50.000 100.000 50.000 87.606 L 50.000 75.211 37.500 75.106 L 25.000 75.000 24.894 62.500 L 24.789 50.000 12.394 50.000 L 0.000 50.000 0.000 112.400 M175.102 87.500 L 175.000 125.000 162.500 125.106 L 150.000 125.211 150.000 137.606 L 150.000 150.000 137.600 150.000 L 125.200 150.000 125.200 162.400 L 125.200 174.800 137.594 174.800 L 149.989 174.800 150.094 187.300 L 150.200 199.800 162.700 199.906 L 175.200 200.011 175.200 212.606 L 175.200 225.200 200.000 225.200 L 224.800 225.200 224.800 212.606 L 224.800 200.011 237.300 199.906 L 249.800 199.800 249.906 187.506 L 250.012 175.211 237.506 175.106 L 225.000 175.000 224.899 112.500 L 224.798 50.000 200.001 50.000 L 175.204 50.000 175.102 87.500 M375.106 62.500 L 375.000 75.000 362.500 75.106 L 350.000 75.211 350.000 87.606 L 350.000 100.000 337.600 100.000 L 325.200 100.000 325.200 112.400 L 325.200 124.800 337.600 124.800 L 350.000 124.800 350.000 149.800 L 350.000 174.800 375.000 174.800 L 400.000 174.800 400.000 112.400 L 400.000 50.000 387.606 50.000 L 375.211 50.000 375.106 62.500 M250.267 150.267 C 250.120 150.413,250.000 155.993,250.000 162.667 L 250.000 174.800 262.400 174.800 L 274.800 174.800 274.800 162.400 L 274.800 150.000 262.667 150.000 C 255.993 150.000,250.413 150.120,250.267 150.267 M100.000 225.000 L 100.000 274.800 112.338 274.800 L 124.677 274.800 124.898 241.700 C 125.020 223.495,125.021 201.085,124.899 191.900 L 124.679 175.200 112.339 175.200 L 100.000 175.200 100.000 225.000 M275.101 191.900 C 274.979 201.085,274.980 223.495,275.102 241.700 L 275.323 274.800 287.662 274.800 L 300.000 274.800 300.000 225.000 L 300.000 175.200 287.661 175.200 L 275.321 175.200 275.101 191.900 M0.000 287.600 L 0.000 350.000 12.394 350.000 L 24.789 350.000 24.894 337.500 L 25.000 325.000 37.500 324.894 L 50.000 324.789 50.000 312.394 L 50.000 300.000 62.600 300.000 L 75.200 300.000 75.200 312.400 L 75.200 324.800 87.600 324.800 L 100.000 324.800 100.000 300.000 L 100.000 275.200 75.000 275.200 L 50.000 275.200 50.000 250.200 L 50.000 225.200 25.000 225.200 L 0.000 225.200 0.000 287.600 M350.000 250.200 L 350.000 275.200 325.000 275.200 L 300.000 275.200 300.000 300.000 L 300.000 324.800 312.400 324.800 L 324.800 324.800 324.800 312.400 L 324.800 300.000 337.400 300.000 L 350.000 300.000 350.000 312.394 L 350.000 324.789 362.500 324.894 L 375.000 325.000 375.106 337.500 L 375.211 350.000 387.606 350.000 L 400.000 350.000 400.000 287.600 L 400.000 225.200 375.000 225.200 L 350.000 225.200 350.000 250.200 M50.000 362.600 L 50.000 400.000 75.000 400.000 L 100.000 400.000 100.000 387.606 L 100.000 375.211 87.500 375.106 L 75.000 375.000 74.897 350.100 L 74.794 325.200 62.397 325.200 L 50.000 325.200 50.000 362.600 M325.103 350.100 L 325.000 375.000 312.500 375.106 L 300.000 375.211 300.000 387.606 L 300.000 400.000 325.000 400.000 L 350.000 400.000 350.000 362.600 L 350.000 325.200 337.603 325.200 L 325.206 325.200 325.103 350.100 " stroke="none" fill="#344c54" fill-rule="evenodd"></path><path id="path2" d="M49.791 12.500 L 49.800 25.000 62.294 25.106 L 74.789 25.211 74.894 37.706 L 75.000 50.200 87.294 50.306 L 99.588 50.412 99.694 62.706 L 99.800 75.000 112.500 75.106 L 125.200 75.211 125.200 62.806 L 125.200 50.400 150.000 50.400 L 174.800 50.400 174.800 87.594 L 174.800 124.789 162.300 124.894 L 149.800 125.000 149.694 137.294 L 149.588 149.588 137.294 149.694 L 125.000 149.800 124.894 162.294 L 124.789 174.789 112.294 174.894 L 99.800 175.000 99.698 224.900 L 99.597 274.800 75.001 274.800 L 50.406 274.800 50.303 249.900 L 50.200 225.000 25.100 224.995 L -0.000 224.991 25.000 225.098 L 50.000 225.206 50.000 250.203 L 50.000 275.200 75.000 275.200 L 100.000 275.200 100.000 300.000 L 100.000 324.800 87.600 324.800 L 75.200 324.800 75.200 312.400 L 75.200 300.000 62.600 300.000 L 50.000 300.000 50.000 312.394 L 50.000 324.789 37.500 324.894 L 25.000 325.000 24.894 337.494 L 24.789 349.989 12.394 350.103 L -0.000 350.217 12.500 350.209 L 25.000 350.200 25.106 337.700 L 25.211 325.200 37.404 325.200 L 49.596 325.200 49.700 362.700 L 49.804 400.200 49.902 362.700 L 50.000 325.200 62.397 325.200 L 74.794 325.200 74.897 350.100 L 75.000 375.000 87.494 375.106 L 99.989 375.211 100.100 387.706 L 100.212 400.200 100.306 387.706 L 100.400 375.212 112.700 375.106 L 125.000 375.000 125.103 350.100 L 125.206 325.200 137.603 325.200 L 150.000 325.200 150.000 362.600 L 150.000 400.000 162.600 400.000 L 175.200 400.000 175.200 362.600 L 175.200 325.200 200.000 325.200 L 224.800 325.200 224.800 362.600 L 224.800 400.000 237.400 400.000 L 250.000 400.000 250.000 362.600 L 250.000 325.200 262.397 325.200 L 274.794 325.200 274.897 350.100 L 275.000 375.000 287.294 375.106 L 299.589 375.212 299.700 387.706 L 299.812 400.200 299.906 387.706 L 300.000 375.211 312.500 375.106 L 325.000 375.000 325.103 350.100 L 325.206 325.200 337.601 325.200 L 349.996 325.200 350.100 362.700 L 350.204 400.200 350.302 362.700 L 350.400 325.200 362.594 325.200 L 374.789 325.200 374.894 337.700 L 375.000 350.200 387.500 350.209 L 400.000 350.217 387.606 350.103 L 375.211 349.989 375.106 337.494 L 375.000 325.000 362.500 324.894 L 350.000 324.789 350.000 312.394 L 350.000 300.000 337.400 300.000 L 324.800 300.000 324.800 312.400 L 324.800 324.800 312.400 324.800 L 300.000 324.800 300.000 300.000 L 300.000 275.200 325.000 275.200 L 350.000 275.200 350.000 250.203 L 350.000 225.206 375.000 225.098 L 400.000 224.991 374.900 224.995 L 349.800 225.000 349.697 249.900 L 349.594 274.800 324.999 274.800 L 300.403 274.800 300.302 224.900 L 300.200 175.000 287.706 174.894 L 275.211 174.789 275.106 162.294 L 275.000 149.800 262.848 149.694 C 254.215 149.619,250.538 149.720,250.148 150.043 C 249.706 150.410,249.600 152.847,249.600 162.649 L 249.600 174.800 237.400 174.800 L 225.200 174.800 225.200 112.600 L 225.200 50.400 250.000 50.400 L 274.800 50.400 274.800 62.806 L 274.800 75.211 287.500 75.106 L 300.200 75.000 300.306 62.706 L 300.412 50.412 312.706 50.306 L 325.000 50.200 325.106 37.706 L 325.211 25.211 337.706 25.106 L 350.200 25.000 350.209 12.500 L 350.217 -0.000 350.103 12.394 L 349.989 24.789 337.494 24.894 L 325.000 25.000 324.894 37.500 L 324.789 50.000 312.394 50.000 L 300.000 50.000 300.000 62.400 L 300.000 74.800 287.600 74.800 L 275.200 74.800 275.200 62.403 L 275.200 50.006 250.100 49.903 L 225.000 49.800 224.897 24.900 L 224.794 0.000 200.000 -0.000 L 175.206 -0.000 175.103 24.900 L 175.000 49.800 149.900 49.903 L 124.800 50.006 124.800 62.403 L 124.800 74.800 112.400 74.800 L 100.000 74.800 100.000 62.400 L 100.000 50.000 87.606 50.000 L 75.211 50.000 75.106 37.500 L 75.000 25.000 62.506 24.894 L 50.011 24.789 49.897 12.394 L 49.783 -0.000 49.791 12.500 M12.394 49.897 L 24.789 50.011 24.894 62.506 L 25.000 75.000 37.500 75.106 L 50.000 75.211 50.000 87.606 L 50.000 100.000 62.400 100.000 L 74.800 100.000 74.800 112.400 L 74.800 124.800 62.400 124.800 L 50.000 124.800 50.000 149.797 L 50.000 174.794 25.000 174.902 L -0.000 175.009 25.100 175.005 L 50.200 175.000 50.303 150.100 L 50.406 125.200 62.809 125.200 L 75.211 125.200 75.106 112.500 L 75.000 99.800 62.706 99.694 L 50.412 99.588 50.306 87.294 L 50.200 75.000 37.706 74.894 L 25.211 74.789 25.106 62.294 L 25.000 49.800 12.500 49.791 L -0.000 49.783 12.394 49.897 M375.067 49.867 C 374.920 50.013,374.800 55.681,374.800 62.461 L 374.800 74.789 362.300 74.894 L 349.800 75.000 349.694 87.294 L 349.588 99.588 337.294 99.694 L 325.000 99.800 324.894 112.500 L 324.789 125.200 337.191 125.200 L 349.594 125.200 349.697 150.100 L 349.800 175.000 374.900 175.005 L 400.000 175.009 375.000 174.902 L 350.000 174.794 350.000 149.797 L 350.000 124.800 337.600 124.800 L 325.200 124.800 325.200 112.400 L 325.200 100.000 337.600 100.000 L 350.000 100.000 350.000 87.606 L 350.000 75.211 362.500 75.106 L 375.000 75.000 375.106 62.506 L 375.211 50.011 387.706 49.900 L 400.200 49.788 387.767 49.694 C 380.928 49.642,375.213 49.720,375.067 49.867 M224.899 112.500 L 225.000 175.000 237.506 175.106 L 250.012 175.211 249.906 187.506 L 249.800 199.800 237.300 199.906 L 224.800 200.011 224.800 212.606 L 224.800 225.200 200.000 225.200 L 175.200 225.200 175.200 212.606 L 175.200 200.011 162.700 199.906 L 150.200 199.800 150.094 187.300 L 149.989 174.800 137.594 174.800 L 125.200 174.800 125.200 162.400 L 125.200 150.000 137.600 150.000 L 150.000 150.000 150.000 137.606 L 150.000 125.211 162.500 125.106 L 175.000 125.000 175.102 87.500 L 175.204 50.000 200.001 50.000 L 224.798 50.000 224.899 112.500 M274.800 162.400 L 274.800 174.800 262.400 174.800 L 250.000 174.800 250.000 162.667 C 250.000 155.993,250.120 150.413,250.267 150.267 C 250.413 150.120,255.993 150.000,262.667 150.000 L 274.800 150.000 274.800 162.400 M124.899 191.900 C 125.021 201.085,125.020 223.495,124.898 241.700 L 124.677 274.800 112.338 274.800 L 100.000 274.800 100.000 225.000 L 100.000 175.200 112.339 175.200 L 124.679 175.200 124.899 191.900 M149.600 187.600 L 149.600 200.000 137.400 200.000 L 125.200 200.000 125.200 187.600 L 125.200 175.200 137.400 175.200 L 149.600 175.200 149.600 187.600 M274.800 187.600 L 274.800 200.000 262.600 200.000 L 250.400 200.000 250.400 187.600 L 250.400 175.200 262.600 175.200 L 274.800 175.200 274.800 187.600 M300.000 225.000 L 300.000 274.800 287.662 274.800 L 275.323 274.800 275.102 241.700 C 274.980 223.495,274.979 201.085,275.101 191.900 L 275.321 175.200 287.661 175.200 L 300.000 175.200 300.000 225.000 M174.800 212.600 L 174.800 224.800 162.400 224.800 L 150.000 224.800 150.000 212.600 L 150.000 200.400 162.400 200.400 L 174.800 200.400 174.800 212.600 M250.000 212.600 L 250.000 224.800 237.600 224.800 L 225.200 224.800 225.200 212.600 L 225.200 200.400 237.600 200.400 L 250.000 200.400 250.000 212.600 M150.000 250.000 L 150.000 274.800 137.600 274.800 L 125.200 274.800 125.200 250.000 L 125.200 225.200 137.600 225.200 L 150.000 225.200 150.000 250.000 M274.800 250.000 L 274.800 274.800 262.400 274.800 L 250.000 274.800 250.000 250.000 L 250.000 225.200 262.400 225.200 L 274.800 225.200 274.800 250.000 M224.800 262.400 L 224.800 274.800 200.000 274.800 L 175.200 274.800 175.200 262.400 L 175.200 250.000 200.000 250.000 L 224.800 250.000 224.800 262.400 M124.800 300.000 L 124.800 324.800 112.600 324.800 L 100.400 324.800 100.400 300.000 L 100.400 275.200 112.600 275.200 L 124.800 275.200 124.800 300.000 M174.800 300.000 L 174.800 324.800 162.400 324.800 L 150.000 324.800 150.000 300.000 L 150.000 275.200 162.400 275.200 L 174.800 275.200 174.800 300.000 M250.000 300.000 L 250.000 324.800 237.600 324.800 L 225.200 324.800 225.200 300.000 L 225.200 275.200 237.600 275.200 L 250.000 275.200 250.000 300.000 M299.600 300.000 L 299.600 324.800 287.400 324.800 L 275.200 324.800 275.200 300.000 L 275.200 275.200 287.400 275.200 L 299.600 275.200 299.600 300.000 M74.800 312.600 L 74.800 324.800 62.600 324.800 L 50.400 324.800 50.400 312.600 L 50.400 300.400 62.600 300.400 L 74.800 300.400 74.800 312.600 M349.600 312.600 L 349.600 324.800 337.400 324.800 L 325.200 324.800 325.200 312.600 L 325.200 300.400 337.400 300.400 L 349.600 300.400 349.600 312.600 M100.000 350.000 L 100.000 374.800 87.600 374.800 L 75.200 374.800 75.200 350.000 L 75.200 325.200 87.600 325.200 L 100.000 325.200 100.000 350.000 M324.800 350.000 L 324.800 374.800 312.400 374.800 L 300.000 374.800 300.000 350.000 L 300.000 325.200 312.400 325.200 L 324.800 325.200 324.800 350.000 " stroke="none" fill="#54747c" fill-rule="evenodd"></path><path id="path3" d="" stroke="none" fill="#809c6c" fill-rule="evenodd"></path><path id="path4" d="" stroke="none" fill="#809c6c" fill-rule="evenodd"></path></g></svg>